<svg viewBox="0 0 48 48" xmlns="http://www.w3.org/2000/svg"><g data-name="Business case"><path d="M2 21h44v24a2 2 0 0 1-2 2H4a2 2 0 0 1-2-2V21Z" fill="#265080" class="fill-b06550"></path><path d="M48 25c-7 8-39 8-48 0V11h48Z" fill="#386ead" class="fill-c8785c"></path><path d="M48 25c-7 8-39 8-48 0V11h48Z" fill="#386ead" class="fill-c8785c"></path><rect height="6" rx="1" ry="1" width="8" x="20" y="28" fill="#dcded1" class="fill-ecf0f1"></rect><path d="m13.936 8.068-4-.118A6.958 6.958 0 0 1 17.062 1h14a6.8 6.8 0 0 1 7 7h-4a2.824 2.824 0 0 0-3-3h-14a2.971 2.971 0 0 0-3.126 3.068Z" fill="#4c5665" class="fill-4c5665"></path><path d="M47 8v3H0V9a1 1 0 0 1 1-1Z" fill="#386ead" class="fill-c8785c"></path><path d="M47 8a1 1 0 0 1 1 1v2h-2V9a1 1 0 0 1 1-1Z" fill="#386ead" class="fill-c8785c"></path><rect height="7" rx="1" ry="1" width="18" x="15" y="15" fill="#265080" class="fill-b06550"></rect></g></svg>